# xmcd CD database file
#
# Track frame offsets:
#	150
#	12632
#	26635
#	40154
#	52910
#	67555
#	79489
#	92299
#	106662
#	122221
#	136460
#	149601
#	161449
#	175546
#	189611
#	203183
#	216826
#	228562
#	241459
#	255337
#	265444
#
# Disc length: 3701 seconds
#
# Revision: 0
# Processed by: cddbd v1.5PL3 Copyright (c) Steve Scherf et al.
# Submitted via: CDex 1.51
#
DISCID=210e7315
DTITLE=Billie Holiday - Early Lady Day: 1933 - 1937
DYEAR=2003
DGENRE=Jazz
TTITLE0=Your Mother's Son-In-Law
TTITLE1=I Wished On The Moon
TTITLE2=What A Little Moonlight Can Do
TTITLE3=It's Too Hot For Words
TTITLE4=If You Were Mine
TTITLE5=Billie's Blues
TTITLE6=A Fine Romance
TTITLE7=Easy To Love
TTITLE8=I Can't Give You Anything But Love
TTITLE9=This Year's Kisses
TTITLE10=I Must Have That Man
TTITLE11=Let's Call The Whole Thing Off
TTITLE12=I'll Get By
TTITLE13=Mean To Me
TTITLE14=Foolin' Myself
TTITLE15=Easy Living
TTITLE16=Me, Myself And I
TTITLE17=Without Your Love
TTITLE18=Getting Some Fun Out Of Life
TTITLE19=Travelin' All Alone
TTITLE20=He's Funny That Way
EXTD=YEAR: 2003
EXTT0=
EXTT1=
EXTT2=
EXTT3=
EXTT4=
EXTT5=
EXTT6=
EXTT7=
EXTT8=
EXTT9=
EXTT10=
EXTT11=
EXTT12=
EXTT13=
EXTT14=
EXTT15=
EXTT16=
EXTT17=
EXTT18=
EXTT19=
EXTT20=
PLAYORDER=
